Coordinates
version=1
nRows=14
nColumns=24
inDegrees=yes

Units are S.I. units (second, meters, Newtons, ...)
If the header above contains a line with 'inDegrees', this indicates whether rotational values are in degrees (yes) or radians (no).

endheader
time	pelvis_tilt	pelvis_list	pelvis_rotation	pelvis_tx	pelvis_ty	pelvis_tz	hip_flexion_r	hip_adduction_r	hip_rotation_r	knee_angle_r	ankle_angle_r	subtalar_angle_r	mtp_angle_r	hip_flexion_l	hip_adduction_l	hip_rotation_l	knee_angle_l	ankle_angle_l	subtalar_angle_l	mtp_angle_l	lumbar_extension	lumbar_bending	lumbar_rotation
      0.84666667	      5.28342917	      1.53628224	     -4.59782426	      0.24912045	      0.73034258	     -0.29417327	     17.36893186	     -8.41291736	     -6.71145506	    -73.90977458	     -8.28056996	    -16.05471497	      0.00000000	     12.01622016	      3.39928742	     -8.40732171	    -21.88137477	      8.36637552	    -11.59980805	      0.00000000	      0.00000000	      0.00000000	      0.00000000
      0.85333333	      5.59683076	      1.53647761	     -4.35242199	      0.25670429	      0.73195948	     -0.29459176	     18.13837669	     -8.43518173	     -6.84677546	    -73.95805046	     -6.30960708	    -15.12998864	      0.00000000	     10.59445898	      3.53650908	     -8.46674642	    -21.14380810	      8.98687678	    -10.81831886	      0.00000000	      0.00000000	      0.00000000	      0.00000000
      0.86000000	      5.52844604	      1.40683407	     -4.03271243	      0.26420432	      0.73323745	     -0.29492682	     19.25778498	     -8.18494178	     -7.02145768	    -73.76470931	     -5.50629681	    -15.29816483	      0.00000000	      9.61313413	      3.52383633	     -8.24100940	    -20.43779401	      9.27489998	    -10.60958884	      0.00000000	      0.00000000	      0.00000000	      0.00000000
      0.86666667	      5.89308273	      1.42731331	     -3.68504168	      0.27175584	      0.73467095	     -0.29546152	     19.86246609	     -8.29757209	     -7.28743695	    -73.53609764	     -3.77163831	    -14.15134302	      0.00000000	      8.16711566	      3.70436854	     -8.07477345	    -19.71747712	      9.76240518	    -10.02636143	      0.00000000	      0.00000000	      0.00000000	      0.00000000
      0.87333333	      5.86553877	      1.33866617	     -3.35876275	      0.27916389	      0.73565253	     -0.29582383	     20.88069479	     -8.12234384	     -7.48052066	    -73.12148539	     -3.06484302	    -14.20017469	      0.00000000	      7.22331642	      3.71300715	     -7.83676325	    -19.12112122	     10.05765850	     -9.84503068	      0.00000000	      0.00000000	      0.00000000	      0.00000000
      0.88000000	      6.21066169	      1.33573591	     -2.92253068	      0.28670546	      0.73683816	     -0.29644559	     21.37016838	     -8.24977171	     -7.87379762	    -72.57325566	     -1.73444536	    -13.27253153	      0.00000000	      5.85957913	      3.84345547	     -7.57158581	    -18.48620817	     10.48280424	     -9.43355083	      0.00000000	      0.00000000	      0.00000000	      0.00000000
      0.88666667	      6.15125569	      1.28191856	     -2.58995636	      0.29413161	      0.73749662	     -0.29679529	     22.33449530	     -8.14702255	     -8.09965114	    -71.90216430	     -1.26211113	    -13.34670750	      0.00000000	      5.03543562	      3.84638387	     -7.43961741	    -18.01544582	     10.75434579	     -9.32347713	      0.00000000	      0.00000000	      0.00000000	      0.00000000
      0.89333333	      6.52620741	      1.27797431	     -2.10253011	      0.30161986	      0.73842569	     -0.29734331	     22.66715101	     -8.25344046	     -8.52654652	    -71.05843510	     -0.13500172	    -12.67422959	      0.00000000	      3.69260074	      3.94455960	     -7.02831434	    -17.47017643	     11.21852100	     -8.90993643	      0.00000000	      0.00000000	      0.00000000	      0.00000000
      0.90000000	      6.50787428	      1.32569403	     -1.77723403	      0.30890381	      0.73878154	     -0.29760430	     23.51879811	     -8.25370226	     -8.70075315	    -70.13831007	      0.15435649	    -12.75312415	      0.00000000	      3.00175419	      4.00542424	     -7.02252830	    -17.29679892	     11.44488261	     -8.87316737	      0.00000000	      0.00000000	      0.00000000	      0.00000000
      0.90666667	      6.78391600	      1.28818916	     -1.19345446	      0.31641453	      0.73934438	     -0.29816945	     23.80992009	     -8.33201001	     -9.24412065	    -68.99447571	      1.08248558	    -12.57678015	      0.00000000	      1.78722631	      4.03721071	     -6.41428904	    -16.77745197	     12.03390432	     -8.43847954	      0.00000000	      0.00000000	      0.00000000	      0.00000000
      0.91333333	      6.75472002	      1.35458885	     -0.83961029	      0.32382341	      0.73941561	     -0.29840803	     24.52353650	     -8.34860839	     -9.42954421	    -67.80051647	      1.54579611	    -12.70634002	      0.00000000	      1.03506377	      4.11760645	     -6.22257975	    -16.47883250	     12.40593853	     -8.31485524	      0.00000000	      0.00000000	      0.00000000	      0.00000000
      0.92000000	      6.79147110	      1.51042842	     -0.55864618	      0.33090149	      0.73932071	     -0.29863668	     25.19996798	     -8.45775157	     -9.49803614	    -66.51968890	      1.72037665	    -12.74310676	      0.00000000	      0.44450059	      4.26625645	     -6.23201408	    -16.56927861	     12.61401750	     -8.30359964	      0.00000000	      0.00000000	      0.00000000	      0.00000000
      0.92666667	      7.15658202	      1.44560155	      0.16624338	      0.33849268	      0.73967182	     -0.29911865	     25.09577163	     -8.54041728	    -10.26257431	    -64.83649727	      2.52481243	    -12.82899806	      0.00000000	     -0.83735227	      4.18946114	     -5.48258863	    -16.11609404	     13.40205956	     -7.76279017	      0.00000000	      0.00000000	      0.00000000	      0.00000000
      0.93333333	      7.10727547	      1.61016456	      0.46802325	      0.34580324	      0.73930190	     -0.29925335	     25.67760835	     -8.63784691	    -10.37490513	    -63.23701369	      2.88777443	    -12.96828827	      0.00000000	     -1.48022351	      4.34730574	     -5.30482028	    -15.97193539	     13.80877228	     -7.68016872	      0.00000000	      0.00000000	      0.00000000	      0.00000000
